<?xml version="1.0" encoding="iso-8859-1"?>
<!-- Generator: Adobe Illustrator 19.0.0, SVG Export Plug-In . SVG Version: 6.00 Build 0)  -->
<svg version="1.1" id="Layer_1" xmlns="http://www.w3.org/2000/svg" xmlns:xlink="http://www.w3.org/1999/xlink" x="0px" y="0px"
	 viewBox="0 0 512 512" style="enable-background:new 0 0 512 512;" xml:space="preserve">
<g>
	<g>
		<path d="M459.575,124.452h-34.118c-4.199,0-7.604,3.405-7.604,7.604s3.405,7.604,7.604,7.604h34.118
			c20.522,0,37.217,16.695,37.217,37.217c0,20.522-16.695,37.217-37.217,37.217h-75.916c-2.017,0-3.951,0.801-5.376,2.227
			L245.609,348.993c-2.97,2.97-2.97,7.784,0,10.753c1.484,1.484,3.431,2.227,5.377,2.227c1.946,0,3.892-0.742,5.376-2.227
			l130.446-130.444h72.767c28.907,0,52.425-23.518,52.425-52.425S488.482,124.452,459.575,124.452z"/>
	</g>
</g>
<g>
	<g>
		<path d="M400.11,124.452h-35.018c-14.003,0-27.167,5.453-37.07,15.355l-64.781,64.781v-16.894
			c0-10.963-4.267-21.274-12.021-29.041c-1.324-1.324-2.728-2.538-4.191-3.655c14.25-8.497,23.82-24.06,23.82-41.822
			c0-26.833-21.83-48.663-48.663-48.663c-26.833,0-48.663,21.83-48.663,48.663c0,17.773,9.582,33.343,23.846,41.837
			c-9.86,7.507-16.239,19.361-16.239,32.681v99.007l-55.938,55.938H52.425C23.518,342.638,0,366.156,0,395.062
			c0,28.906,23.518,52.425,52.425,52.425h94.482c14.002,0,27.167-5.453,37.07-15.355l53.376-53.376c2.97-2.97,2.97-7.784,0-10.753
			c-2.969-2.97-7.783-2.97-10.753-0.001l-53.376,53.376c-7.03,7.029-16.376,10.9-26.317,10.9H52.425
			c-20.522,0.001-37.217-16.694-37.217-37.216s16.695-37.217,37.217-37.217h75.916c2.017,0,3.951-0.801,5.377-2.227L338.776,150.56
			c7.03-7.029,16.376-10.9,26.317-10.9h35.018c4.199,0,7.604-3.405,7.604-7.604S404.31,124.452,400.11,124.452z M188.73,113.176
			c0-18.447,15.008-33.455,33.455-33.455c18.447,0,33.455,15.008,33.455,33.455s-15.008,33.455-33.455,33.455
			C203.739,146.632,188.73,131.624,188.73,113.176z M248.034,219.796l-51.697,51.697v-83.799c0-14.256,11.598-25.853,25.854-25.853
			c6.906,0,13.397,2.687,18.272,7.561c4.882,4.891,7.572,11.387,7.572,18.292V219.796z"/>
	</g>
</g>
<g>
	<g>
		<path d="M396.109,302.707c-1.728-1.73-4.183-2.522-6.595-2.13l-55.675,9.039c-4.146,0.673-6.96,4.58-6.288,8.724
			c0.674,4.146,4.58,6.958,8.724,6.288l32.423-5.263l-90.894,90.893c-2.97,2.97-2.97,7.784,0,10.753
			c1.484,1.484,3.431,2.227,5.377,2.227c1.946,0,3.892-0.742,5.376-2.227l90.894-90.893l-5.264,32.422
			c-0.673,4.145,2.142,8.051,6.288,8.724c0.413,0.067,0.823,0.099,1.228,0.099c3.663,0,6.89-2.654,7.497-6.386l9.039-55.675
			C398.629,306.889,397.837,304.435,396.109,302.707z"/>
	</g>
</g>
<g>
</g>
<g>
</g>
<g>
</g>
<g>
</g>
<g>
</g>
<g>
</g>
<g>
</g>
<g>
</g>
<g>
</g>
<g>
</g>
<g>
</g>
<g>
</g>
<g>
</g>
<g>
</g>
<g>
</g>
</svg>
